<?xml version="1.0" encoding="UTF-8"?>
<svg width="172px" height="33px" viewBox="0 0 172 33" version="1.1" xmlns="http://www.w3.org/2000/svg" xmlns:xlink="http://www.w3.org/1999/xlink">
    <!-- Generator: Sketch 51 (57462) - http://www.bohemiancoding.com/sketch -->
    <title>Group 76</title>
    <desc>Created with Sketch.</desc>
    <defs></defs>
    <g id="Page-1" stroke="none" stroke-width="1" fill="none" fill-rule="evenodd">
        <g id="2" transform="translate(-50.000000, -22.000000)">
            <rect fill="#FFFFFF" x="0" y="0" width="1440" height="6747"></rect>
            <g id="Group-76" transform="translate(50.000000, 22.000000)">
                <g id="Group-53" transform="translate(0.000000, 0.352230)" fill="#0073CF">
                    <path d="M12.228422,1.11213626 C12.0826418,0.80461978 11.7316088,0.652312088 11.4070484,0.754938462 C4.79544396,2.83974066 -7.25274725e-05,9.01690549 -7.25274725e-05,16.3175209 C-7.25274725e-05,20.3398945 1.45736703,24.0199385 3.87035604,26.8644659 C4.10498242,27.1415209 4.54957582,27.0798725 4.70550989,26.752411 L12.8068286,9.74870769 C12.9138066,9.52387253 13.2340154,9.5245978 13.3402681,9.7497956 L15.1092132,13.498378 C15.2444769,13.7848615 15.2437516,14.1170374 15.1070374,14.4027956 L7.95183956,29.3902352 C7.75383956,29.8054549 7.90542198,30.3062571 8.30541099,30.5321802 C10.6730703,31.8706747 13.4062681,32.6372901 16.3196967,32.6372901 C19.5964879,32.6372901 22.6448176,31.6683231 25.2010484,30.0059934 C25.5078396,29.8065429 25.6209824,29.4119934 25.4646857,29.0809055 L12.228422,1.11213626 Z M16.4535099,0.535542857 C16.3360154,0.287861538 16.5209604,0.00391648352 16.7947516,0.010443956 C17.017411,0.0158835165 17.2531253,0.0231362637 17.4068835,0.0332901099 C25.9132681,0.59283956 32.6398286,7.66970769 32.6398286,16.3175209 C32.6398286,19.9725429 31.4369604,23.3461582 29.4072791,26.0663011 C29.1654,26.3904989 28.6627846,26.3342901 28.4898066,25.9691143 L16.4535099,0.535542857 Z" id="Fill-51"></path>
                </g>
                <path d="M73.3524725,18.7418967 C73.3524725,21.7111714 71.4678462,23.3459407 68.0456374,23.3459407 C64.6234286,23.3459407 62.7388022,21.7111714 62.7388022,18.7418967 L62.7388022,8.37772088 C62.7388022,7.8906989 62.3438901,7.49578681 61.8568681,7.49578681 L60.6137473,7.49578681 C60.1267253,7.49578681 59.7318132,7.8906989 59.7318132,8.37772088 L59.7318132,18.7418967 C59.7318132,23.5229077 62.839978,26.3772264 68.0456374,26.3772264 C73.2516593,26.3772264 76.3594615,23.5229077 76.3594615,18.7418967 L76.3594615,8.37772088 C76.3594615,7.8906989 75.9645495,7.49578681 75.4775275,7.49578681 L74.2344066,7.49578681 C73.7473846,7.49578681 73.3524725,7.8906989 73.3524725,8.37772088 L73.3524725,18.7418967 Z" id="Fill-54" fill="#231F20"></path>
                <path d="M132.834719,21.2729242 C131.538653,22.5998143 129.759916,23.346122 127.832862,23.346122 C123.998334,23.346122 120.87784,20.400056 120.87784,16.7787593 C120.87784,12.8615505 123.792719,10.0177484 127.808927,10.0177484 C129.504982,10.0177484 131.137576,10.5849132 132.381422,11.614078 C132.456488,11.6764516 132.524301,11.7333857 132.585224,11.7866934 C132.885851,12.0485176 133.342048,12.0115286 133.600609,11.7083637 L134.593147,10.5457484 C134.85896,10.2346055 134.827411,9.76825385 134.521345,9.49627582 C134.406752,9.39437473 134.274026,9.28086923 134.125708,9.16047363 C132.362927,7.72914396 130.160631,6.96289121 127.832862,6.96289121 C122.089774,6.96289121 117.469048,11.6449022 117.927059,17.2262538 C118.365851,22.5722538 122.912598,26.6065945 128.27129,26.3668912 C130.680653,26.2588253 132.959466,25.3105286 134.69396,23.7044077 C134.758873,23.6442099 134.848807,23.5542758 134.943455,23.4567264 C135.240455,23.1528363 135.272367,22.678144 135.020697,22.3361769 L134.126796,21.1173527 C133.863884,20.759067 133.339147,20.7293308 133.038158,21.056067 C132.958015,21.1438253 132.885488,21.221067 132.834719,21.2729242" id="Fill-56" fill="#231F20"></path>
                <path d="M166.829143,14.9869681 C166.094077,14.8433637 164.087967,14.7443637 162.889813,14.6848912 C162.493451,14.6653088 162.180495,14.6497154 162.096363,14.6413747 C160.387253,14.465133 159.556451,13.8638802 159.556451,12.8042538 C159.556451,11.3199791 161.209714,10.018111 163.093978,10.018111 C165.096462,10.018111 166.38056,10.4318802 168.043978,11.6771769 C168.118681,11.7330231 168.253945,11.8392758 168.385582,11.9433527 C168.58467,12.1011 168.87333,12.0724516 169.037967,11.8788033 L170.340198,10.3466604 C170.503747,10.1541 170.486341,9.86652857 170.301033,9.69463846 C170.17556,9.57786923 170.043923,9.45747363 169.967407,9.39183626 C168.036725,7.73748462 165.834066,6.96252857 163.093978,6.96252857 C158.856923,6.96252857 156.234692,10.0075945 156.234692,12.8285505 C156.234692,15.6165066 158.096473,17.2777484 161.618769,17.6320451 C162.236703,17.694056 163.035956,17.7129132 163.808736,17.7306824 C164.659846,17.7502648 165.463813,17.769122 165.906593,17.8438253 C167.531571,18.1172538 168.255758,18.8653747 168.255758,20.2687813 C168.255758,22.2237593 166.066154,22.9225615 165.124385,23.1321659 C164.476352,23.2768582 162.221473,23.4861 160.691143,22.8833967 C159.764242,22.5189462 158.913495,21.9158802 158.105176,21.0488143 C158.048242,20.9878912 157.946341,20.8714846 157.846253,20.7547154 C157.690319,20.5737593 157.41544,20.5588912 157.241374,20.722078 L155.737154,22.1294736 C155.54133,22.3129681 155.520659,22.6164956 155.690374,22.8246495 C155.791912,22.9493967 155.895626,23.0745066 155.959451,23.1455835 C157.102121,24.422067 158.536714,25.3536824 160.145374,25.858111 C161.18433,26.1837593 162.373055,26.287111 163.412374,26.287111 C164.526396,26.287111 165.468527,26.1681659 165.869604,26.076056 C169.307044,25.2876824 171.359209,23.1165725 171.359209,20.2687813 C171.359209,17.1863637 170.004396,15.6067154 166.829143,14.9869681" id="Fill-58" fill="#231F20"></path>
                <path d="M88.8876033,7.4958956 L80.3355264,7.4958956 C79.8851308,7.4958956 79.5823286,7.95825824 79.7625593,8.3713022 L80.4254604,9.89039011 C80.6002516,10.2918297 80.9969769,10.5511154 81.4350429,10.5511154 L88.9115374,10.5511154 C92.7910319,10.5511154 94.5578011,13.8170275 94.5578011,16.8515769 C94.5578011,20.3191154 92.1517022,22.9337308 88.9604934,22.9337308 L87.212944,22.9337308 C86.8724275,22.9337308 86.5971857,23.2096978 86.5971857,23.5498516 L86.5971857,25.3492582 C86.5971857,25.6894121 86.8724275,25.9650165 87.212944,25.9650165 L88.9604934,25.9650165 C91.5297791,25.9650165 93.2425154,25.2520714 94.8700319,23.5048846 C96.5874824,21.6873462 97.6133835,19.1278516 97.6133835,16.6579286 C97.6133835,11.5200824 93.7803066,7.4958956 88.8876033,7.4958956" id="Fill-60" fill="#231F20"></path>
                <path d="M82.0762945,12.8146978 L82.0762945,25.2491703 C82.0762945,25.6444451 82.3968659,25.9650165 82.7921407,25.9650165 L84.3431407,25.9650165 C84.738778,25.9650165 85.0593495,25.6444451 85.0593495,25.2491703 L85.0589868,12.8146978 C85.0589868,12.4194231 84.7384154,12.0988516 84.3431407,12.0988516 L82.7921407,12.0988516 C82.3968659,12.0988516 82.0762945,12.4194231 82.0762945,12.8146978" id="Fill-62" fill="#231F20"></path>
                <path d="M144.091708,18.3388978 L151.644356,18.3388978 C151.908719,18.3388978 152.114697,18.1093484 152.085686,17.8467989 L151.861213,15.795722 C151.829301,15.5041615 151.582708,15.283678 151.290059,15.283678 L144.014103,15.283678 C143.707675,15.283678 143.459631,15.5320846 143.459631,15.8381505 L143.459631,17.7068209 C143.459631,18.055678 143.742488,18.3388978 144.091708,18.3388978" id="Fill-64" fill="#231F20"></path>
                <path d="M141.91378,22.4398187 L141.91378,11.1208187 C141.91378,10.8064121 142.168714,10.551478 142.482758,10.551478 L150.743637,10.551478 C151.033385,10.551478 151.259308,10.2998077 151.227758,10.011511 L151.014527,8.06342308 C150.978989,7.74031319 150.706286,7.4958956 150.381363,7.4958956 L139.581659,7.4958956 C139.195813,7.4958956 138.882857,7.80885165 138.882857,8.1946978 L138.882857,25.2633132 C138.882857,25.6506099 139.196901,25.9650165 139.58456,25.9650165 L152.34178,25.9650165 C152.679396,25.9650165 152.94267,25.6716429 152.906044,25.335478 L152.700791,23.4646319 C152.667791,23.1625549 152.412857,22.9337308 152.108967,22.9337308 L142.408055,22.9337308 C142.134989,22.9337308 141.91378,22.7128846 141.91378,22.4398187" id="Fill-66" fill="#231F20"></path>
                <path d="M45.8315242,7.90738022 L54.0847879,25.3973802 C54.2461615,25.7397099 54.5903044,25.9576549 54.9685352,25.9576549 L56.9003044,25.9576549 C57.2879637,25.9576549 57.5439857,25.5544022 57.3782604,25.2033692 L49.1137549,7.68870989 C48.9592714,7.36161099 48.6299967,7.15309451 48.2684473,7.15309451 L46.3098429,7.15309451 C45.9218209,7.15309451 45.6661615,7.55670989 45.8315242,7.90738022" id="Fill-68" fill="#231F20"></path>
                <path d="M39.5924934,25.9578 L41.6167352,25.9578 C41.9101088,25.9578 42.1770099,25.788811 42.3021198,25.5237231 L47.1411527,15.2821187 C47.2920099,14.9622725 47.2923725,14.5920198 47.1411527,14.2721736 L46.0082736,11.870789 C45.8799,11.5991736 45.4936912,11.5991736 45.3653176,11.870789 L39.0877022,25.1610857 C38.912911,25.5313385 39.1830758,25.9578 39.5924934,25.9578" id="Fill-70" fill="#231F20"></path>
                <path d="M105.394348,7.90738022 L113.647612,25.3973802 C113.808986,25.7397099 114.152766,25.9576549 114.530997,25.9576549 L116.462766,25.9576549 C116.850788,25.9576549 117.10681,25.5544022 116.941085,25.2033692 L108.676579,7.68870989 C108.522096,7.36161099 108.192821,7.15309451 107.831271,7.15309451 L105.872304,7.15309451 C105.484645,7.15309451 105.228986,7.55670989 105.394348,7.90738022" id="Fill-72" fill="#231F20"></path>
                <path d="M99.1551363,25.9578 L101.179378,25.9578 C101.472752,25.9578 101.739653,25.788811 101.864763,25.5237231 L106.703796,15.2821187 C106.854653,14.9622725 106.855015,14.5920198 106.704158,14.2721736 L105.570916,11.870789 C105.442905,11.5991736 105.056334,11.5991736 104.92796,11.870789 L98.6503451,25.1610857 C98.4755538,25.5313385 98.7457187,25.9578 99.1551363,25.9578" id="Fill-74" fill="#231F20"></path>
            </g>
        </g>
    </g>
</svg>