<svg width="33" height="32" viewBox="0 0 33 32" fill="none" xmlns="http://www.w3.org/2000/svg">
<path fill-rule="evenodd" clip-rule="evenodd" d="M11.9935 1.08063C11.8505 0.779023 11.5062 0.629642 11.1879 0.730297C4.70337 2.77504 0 8.8335 0 15.9938C0 19.9389 1.42943 23.5482 3.79605 26.3381C4.02617 26.6098 4.46222 26.5494 4.61516 26.2282L12.5608 9.55124C12.6657 9.33073 12.9798 9.33144 13.084 9.55231L14.8189 13.2289C14.9516 13.5098 14.9509 13.8356 14.8168 14.1159L7.79911 28.8153C7.60491 29.2226 7.75358 29.7138 8.14589 29.9353C10.468 31.2481 13.1487 32 16.0062 32C19.22 32 22.2097 31.0497 24.7169 29.4193C25.0178 29.2236 25.1287 28.8367 24.9754 28.512L11.9935 1.08063ZM16.1374 0.515117C16.0222 0.272195 16.2036 -0.00629368 16.4721 0.000108358C16.6905 0.00544339 16.9217 0.0125568 17.0725 0.0225155C25.4154 0.571313 32.0127 7.51219 32.0127 15.9938C32.0127 19.5786 30.8329 22.8874 28.8423 25.5553C28.605 25.8732 28.1121 25.8181 27.9424 25.46L16.1374 0.515117Z" fill="#056FD2"/>
</svg>
